<svg width="10" height="9" fill="none" xmlns="http://www.w3.org/2000/svg"><path d="M4.375 7.79a.346.346 0 0 0-.408-.34c-.453.083-1.025.096-1.177-.331a1.975 1.975 0 0 0-.636-.836.417.417 0 0 1-.057-.038.346.346 0 0 0-.322-.223h-.002a.346.346 0 0 0-.346.344c-.001.283.28.463.395.524.135.136.243.295.32.47.126.355.492.892 1.545.823v.034l.002.092a.346.346 0 1 0 .692 0l-.002-.11c-.001-.065-.004-.16-.004-.408zm3.69-5.233c.012-.043.023-.09.032-.145.056-.385.007-.779-.141-1.14a.347.347 0 0 0-.213-.2c-.123-.041-.578-.123-1.448.433a4.798 4.798 0 0 0-2.198 0C3.23.957 2.778 1.03 2.657 1.07a.345.345 0 0 0-.22.202 2.18 2.18 0 0 0-.139 1.162l.027.122c-.286.382-.439.848-.434 1.325 0 .107.004.213.015.319.115 1.592 1.153 2.07 1.876 2.235-.015.043-.028.09-.04.138a.346.346 0 0 0 .672.166.58.58 0 0 1 .161-.304.346.346 0 0 0-.188-.604c-1.195-.136-1.714-.623-1.792-1.694a2.286 2.286 0 0 1-.012-.256 1.473 1.473 0 0 1 .386-1.019.346.346 0 0 0 .065-.354 1.171 1.171 0 0 1-.054-.192 1.416 1.416 0 0 1 .027-.559c.301.085.584.223.836.408a.35.35 0 0 0 .286.046c.7-.19 1.437-.19 2.136 0a.348.348 0 0 0 .287-.047 2.62 2.62 0 0 1 .832-.412c.046.178.057.364.03.546a1.108 1.108 0 0 1-.058.21.346.346 0 0 0 .065.354 1.426 1.426 0 0 1 .39 1.019c0 .09-.004.18-.013.269C7.72 5.207 7.2 5.694 6 5.831a.346.346 0 0 0-.189.604.564.564 0 0 1 .162.315c.023.092.034.188.032.283v.808C6 8.065 6 8.232 6 8.309a.346.346 0 1 0 .692 0c0-.075 0-.24.004-.463v-.813a1.689 1.689 0 0 0-.054-.454 1.47 1.47 0 0 0-.04-.144 2.253 2.253 0 0 0 1.884-2.222c.011-.11.016-.221.016-.332a2.121 2.121 0 0 0-.437-1.324z" fill="#F1F1F1" fill-opacity=".7"/></svg>