<svg width="9" height="9" fill="none" xmlns="http://www.w3.org/2000/svg"><g clip-path="url(#a)"><path d="M6.695 3.81c-.31 0-.615.077-.888.223a.346.346 0 0 0-.323-.223H4.1a.346.346 0 0 0-.346.346v4.152a.346.346 0 0 0 .346.346h1.384a.346.346 0 0 0 .346-.346V6.405a.346.346 0 1 1 .692 0v1.903a.346.346 0 0 0 .346.346H8.25a.346.346 0 0 0 .346-.346V5.713A1.905 1.905 0 0 0 6.695 3.81zm1.21 4.152h-.691V6.405a1.038 1.038 0 1 0-2.076 0v1.557h-.692v-3.46h.692v.244a.346.346 0 0 0 .616.216 1.205 1.205 0 0 1 2.152.751v2.25zM3.063 3.81H1.678a.346.346 0 0 0-.346.346v4.152a.346.346 0 0 0 .346.346h1.384a.346.346 0 0 0 .346-.346V4.156a.346.346 0 0 0-.346-.346zm-.346 4.152h-.692v-3.46h.692v3.46zm-.341-6.731a1.118 1.118 0 1 0-.02 2.233h.01a1.118 1.118 0 1 0 .01-2.233zm-.01 1.542h-.01a.423.423 0 0 1-.473-.425c0-.259.193-.426.493-.426a.427.427 0 0 1 .483.426c0 .258-.193.425-.493.425z" fill="#F1F1F1" fill-opacity=".7"/></g><defs><clipPath id="a"><path fill="#fff" transform="translate(.64 .697)" d="M0 0h8.303v8.303H0z"/></clipPath></defs></svg>