<svg width="56" height="56" fill="none" xmlns="http://www.w3.org/2000/svg"><rect width="56" height="56" rx="16" fill="#F5F3FE"/><path d="m26.586 28.586.53-.53-.53.53zm2.828 0-.53-.53.53.53zM20 21.75h16v-1.5H20v1.5zm16.25.25v12h1.5V22h-1.5zM36 34.25H20v1.5h16v-1.5zM19.75 34V22h-1.5v12h1.5zm.25.25a.25.25 0 0 1-.25-.25h-1.5c0 .967.784 1.75 1.75 1.75v-1.5zM36.25 34a.25.25 0 0 1-.25.25v1.5A1.75 1.75 0 0 0 37.75 34h-1.5zM20 20.25c-.483 0-.922.197-1.237.513l1.06 1.06A.247.247 0 0 1 20 21.75v-1.5zm-1.237.513A1.747 1.747 0 0 0 18.25 22h1.5c0-.07.027-.13.073-.177l-1.06-1.06zM36 21.75c.07 0 .13.027.177.073l1.06-1.06A1.747 1.747 0 0 0 36 20.25v1.5zm.177.073a.247.247 0 0 1 .073.177h1.5c0-.483-.197-.922-.513-1.237l-1.06 1.06zm-10.122 7.293a2.75 2.75 0 0 0 3.89 0l-1.061-1.06a1.25 1.25 0 0 1-1.768 0l-1.06 1.06zm-7.292-7.293 7.292 7.293 1.061-1.06-7.293-7.293-1.06 1.06zm11.181 7.293 7.293-7.293-1.06-1.06-7.293 7.292 1.06 1.061z" fill="#7E74F1"/></svg>