<svg width="9" height="9" fill="none" xmlns="http://www.w3.org/2000/svg"><g clip-path="url(#a)"><path d="M3.707 7.539a.346.346 0 0 0-.408-.34c-.453.083-1.025.095-1.177-.332a1.975 1.975 0 0 0-.636-.835.415.415 0 0 1-.057-.038.346.346 0 0 0-.322-.224h-.002a.346.346 0 0 0-.346.345c-.001.282.28.463.395.524.135.135.243.295.32.47.126.354.492.891 1.545.822v.034l.002.093a.346.346 0 1 0 .692 0l-.002-.11c-.001-.066-.004-.16-.004-.41zm3.69-5.233c.012-.044.023-.092.032-.146.056-.385.007-.779-.141-1.139a.347.347 0 0 0-.213-.2c-.123-.042-.578-.124-1.448.432a4.798 4.798 0 0 0-2.198 0C2.563.705 2.11.779 1.989.819a.345.345 0 0 0-.219.202 2.18 2.18 0 0 0-.14 1.161c.009.044.018.085.028.123-.287.381-.44.847-.435 1.324 0 .107.004.213.015.32.115 1.592 1.153 2.07 1.877 2.234-.015.043-.03.09-.041.138a.346.346 0 0 0 .672.166.58.58 0 0 1 .162-.304.346.346 0 0 0-.19-.603c-1.194-.137-1.713-.624-1.791-1.695a2.286 2.286 0 0 1-.012-.256 1.473 1.473 0 0 1 .386-1.018.346.346 0 0 0 .065-.355 1.172 1.172 0 0 1-.054-.192 1.416 1.416 0 0 1 .027-.559c.301.085.584.223.836.408a.349.349 0 0 0 .286.046c.7-.19 1.437-.19 2.136 0a.348.348 0 0 0 .287-.047 2.62 2.62 0 0 1 .832-.412c.046.178.057.364.03.546a1.109 1.109 0 0 1-.058.21.346.346 0 0 0 .065.355 1.426 1.426 0 0 1 .39 1.019c0 .09-.004.179-.013.268-.076 1.057-.597 1.545-1.798 1.682a.346.346 0 0 0-.189.604.564.564 0 0 1 .162.314c.023.092.034.188.032.283v.808c-.004.224-.004.392-.004.469a.346.346 0 1 0 .692 0c0-.075 0-.24.004-.464v-.813a1.689 1.689 0 0 0-.054-.453 1.473 1.473 0 0 0-.04-.144A2.253 2.253 0 0 0 7.819 3.96a3.01 3.01 0 0 0 .016-.332 2.121 2.121 0 0 0-.437-1.323z" fill="#656D72"/></g><defs><clipPath id="a"><path fill="#fff" transform="translate(.223 .446)" d="M0 0h8.303v8.303H0z"/></clipPath></defs></svg>