<svg width="20" height="21" fill="none" xmlns="http://www.w3.org/2000/svg"><path d="m1.354 15.5.15-.735a.75.75 0 0 0-.769 1.158l.62-.423zm8-14 .02-.75a.75.75 0 0 0-.553 1.277l.533-.527zm9.75 9c0-5.314-4.342-9.608-9.73-9.75l-.04 1.5c4.615.121 8.27 3.787 8.27 8.25h1.5zm-9.75 9.75c5.542 0 9.75-4.372 9.75-9.75h-1.5c0 4.565-3.553 8.25-8.25 8.25v1.5zM.735 15.923c1.812 2.656 5.167 4.327 8.62 4.327v-1.5c-3.006 0-5.875-1.465-7.381-3.673l-1.239.846zm.47.312c4.341.883 8.061-1.378 9.913-4.595 1.853-3.221 1.89-7.506-1.23-10.667L8.821 2.027c2.563 2.597 2.576 6.12.997 8.865-1.582 2.748-4.703 4.608-8.314 3.873l-.299 1.47z" fill="#232E35"/></svg>