<svg width="19" height="18" fill="none" xmlns="http://www.w3.org/2000/svg"><rect x=".789" y=".022" width="17.656" height="17.656" rx="5.044" fill="#F5F3FE"/><path d="m9.17 9.035.168-.167-.167.167zm.893 0-.168-.167.168.167zM7.095 6.88h5.044v-.473H7.095v.473zm5.123.078v3.784h.473V6.958h-.473zm-.079 3.863H7.095v.473h5.044v-.473zm-5.123-.08V6.959h-.473v3.784h.473zm.079.08a.079.079 0 0 1-.08-.08h-.472c0 .306.247.553.552.553v-.473zm5.123-.08a.079.079 0 0 1-.079.08v.473a.552.552 0 0 0 .552-.552h-.473zM7.095 6.408a.55.55 0 0 0-.39.161l.334.335a.078.078 0 0 1 .056-.023v-.473zm-.39.161a.55.55 0 0 0-.162.39h.473c0-.021.008-.04.023-.055l-.335-.335zm5.434.312c.022 0 .041.008.056.023l.334-.335a.55.55 0 0 0-.39-.161v.473zm.056.023a.078.078 0 0 1 .023.055h.473a.55.55 0 0 0-.162-.39l-.334.335zM9.004 9.202a.867.867 0 0 0 1.226 0l-.335-.334a.394.394 0 0 1-.557 0l-.334.334zm-2.3-2.3 2.3 2.3.334-.334-2.3-2.3-.334.335zm3.526 2.3 2.3-2.3-.335-.334-2.3 2.3.335.334z" fill="#7E74F1"/></svg>