<svg width="19" height="18" fill="none" xmlns="http://www.w3.org/2000/svg"><rect x=".789" y=".234" width="17.656" height="17.656" rx="5.044" fill="#F5F3FE"/><g clip-path="url(#a)"><path d="m12.454 10.473-.236-.006v.006h.236zm0 .854h-.236v.001h.236zM7.35 6.224v-.236.236zm.856 0v.236h.003l-.003-.236zm.378.138-.154.18.154-.18zm-.098 2.115-.167-.168a.236.236 0 0 0-.038.285l.205-.117zm1.712 1.708-.117.206a.236.236 0 0 0 .284-.038l-.167-.168zm2.122-.094.18-.153-.18.153zm-3.32-2.258.232.05L9 7.833zm1.843 1.839.049.23-.05-.23zm.99 2.225.021-.236a.221.221 0 0 0-.021 0v.236zm-5.05-5.052h.236l-.001-.021-.236.02zm3.668.25a.236.236 0 1 0-.09.465l.09-.465zm.669 1.224a.236.236 0 0 0 .464-.091l-.464.09zm-.53-2.33a.236.236 0 1 0-.053.47l.053-.47zm1.235.866.167-.168-.167.168zm.395 1.287a.236.236 0 0 0 .47-.053l-.47.053zm-.001 2.33v.855h.473v-.854h-.473zM7.349 6.46h.856v-.472H7.35v.472zm.859 0c.08 0 .16.028.221.081l.308-.359a.808.808 0 0 0-.534-.194l.005.472zm.072 2.134c.427.75 1.049 1.37 1.8 1.797l.234-.411A4.325 4.325 0 0 1 8.69 8.36l-.41.234zm3.859 1.65a.333.333 0 0 1 .079.223l.473.012a.805.805 0 0 0-.192-.541l-.36.306zM8.429 6.54c.039.033.09.102.142.212.051.106.096.235.131.37.073.282.092.543.066.66l.463.1c.049-.228.008-.575-.071-.879a2.572 2.572 0 0 0-.162-.455 1.12 1.12 0 0 0-.26-.367l-.309.36zm2.462 3.362c.119-.025.38-.007.664.067a2.1 2.1 0 0 1 .372.131c.11.053.179.104.212.143l.36-.306a1.113 1.113 0 0 0-.367-.263c-.14-.067-.3-.122-.458-.163-.305-.08-.653-.12-.882-.072l.099.463zm-.527.45c.051-.051.102-.108.148-.158.048-.052.092-.1.137-.142a.535.535 0 0 1 .242-.15l-.099-.463a.993.993 0 0 0-.467.269 3.146 3.146 0 0 0-.161.166c-.05.055-.092.101-.134.143l.334.335zm-1.596-2.57a.532.532 0 0 1-.15.241c-.042.046-.09.09-.142.138-.05.045-.107.096-.158.147l.334.335c.042-.041.088-.083.143-.133.053-.048.111-.103.167-.162a.991.991 0 0 0 .269-.466l-.463-.1zm3.064 3.877c-2.715.002-4.816-2.118-4.814-4.815h-.473c-.002 2.956 2.31 5.29 5.287 5.288v-.473zm.386-.332c0 .188-.174.35-.365.333l-.042.471c.469.043.881-.34.88-.806l-.473.002zM7.017 6.824a.342.342 0 0 1 .333-.364v-.472a.815.815 0 0 0-.804.878l.471-.042zm3.343.736a.99.99 0 0 1 .508.25l.335-.334a1.46 1.46 0 0 0-.753-.38l-.09.464zm.508.25c.126.126.212.31.25.509l.465-.091a1.46 1.46 0 0 0-.38-.752l-.335.334zm-.332-1.351c.422.047.809.252 1.12.563l.335-.335a2.359 2.359 0 0 0-1.402-.698l-.053.47zm1.12.563c.312.31.516.698.563 1.12l.47-.053a2.359 2.359 0 0 0-.698-1.402l-.334.335z" fill="#7E74F1"/></g><defs><clipPath id="a"><path fill="#fff" transform="translate(5.833 5.278)" d="M0 0h7.567v7.567H0z"/></clipPath></defs></svg>