<svg width="10" height="9" fill="none" xmlns="http://www.w3.org/2000/svg"><path d="m1.792 6.45.052-.254a.26.26 0 0 0-.266.4l.214-.146zM4.56 1.607l.007-.26a.26.26 0 0 0-.192.442l.185-.182zM7.933 4.72c0-1.84-1.502-3.325-3.366-3.374l-.014.52c1.596.041 2.861 1.31 2.861 2.854h.52zM4.56 8.094c1.917 0 3.373-1.513 3.373-3.373h-.519c0 1.579-1.23 2.854-2.854 2.854v.519zM1.578 6.597c.627.919 1.788 1.497 2.982 1.497v-.52c-1.04 0-2.032-.506-2.554-1.27l-.428.293zm.162.108c1.502.305 2.79-.477 3.43-1.59.641-1.114.654-2.597-.425-3.69l-.37.364c.887.899.891 2.118.345 3.067-.547.95-1.627 1.594-2.876 1.34l-.104.509z" fill="#F1F1F1"/></svg>