<svg width="9" height="9" viewBox="0 0 20 21" fill="none" xmlns="http://www.w3.org/2000/svg">
<path d="M1.35449 15.5L1.504 14.7651C1.20486 14.7042 0.898683 14.8307 0.72977 15.085C0.560857 15.3393 0.562914 15.6706 0.734972 15.9227L1.35449 15.5ZM9.35449 1.5L9.3742 0.750259C9.06826 0.742217 8.78813 0.920869 8.66639 1.20166C8.54464 1.48244 8.60572 1.80903 8.8207 2.02685L9.35449 1.5ZM19.1045 10.5C19.1045 5.18571 14.7618 0.891872 9.3742 0.750259L9.33479 2.24974C13.9486 2.37102 17.6045 6.03726 17.6045 10.5H19.1045ZM9.35449 20.25C14.8956 20.25 19.1045 15.8776 19.1045 10.5H17.6045C17.6045 15.0653 14.0511 18.75 9.35449 18.75V20.25ZM0.734972 15.9227C2.54749 18.5791 5.90248 20.25 9.35449 20.25V18.75C6.34871 18.75 3.48025 17.2847 1.97401 15.0773L0.734972 15.9227ZM1.20499 16.2349C5.54605 17.118 9.26645 14.8566 11.1176 11.6399C12.9712 8.41893 13.0076 4.13357 9.88828 0.973151L8.8207 2.02685C11.3843 4.62418 11.3967 8.14763 9.81754 10.8917C8.23601 13.6399 5.11497 15.4996 1.504 14.7651L1.20499 16.2349Z" fill="#232E35"/>
</svg>
