<svg width="24" height="24" fill="none" xmlns="http://www.w3.org/2000/svg"><path d="M3 11.25a.75.75 0 0 0 0 1.5v-1.5zm2 1.5a.75.75 0 0 0 0-1.5v1.5zm-.53 5.72a.75.75 0 1 0 1.06 1.06l-1.06-1.06zm3.06-.94a.75.75 0 1 0-1.06-1.06l1.06 1.06zM12.75 19a.75.75 0 0 0-1.5 0h1.5zm-1.5 2a.75.75 0 0 0 1.5 0h-1.5zm6.28-4.53a.75.75 0 1 0-1.06 1.06l1.06-1.06zm.94 3.06a.75.75 0 1 0 1.06-1.06l-1.06 1.06zM5.53 4.47a.75.75 0 0 0-1.06 1.06l1.06-1.06zm.94 3.06a.75.75 0 0 0 1.06-1.06L6.47 7.53zM19 11.25a.75.75 0 0 0 0 1.5v-1.5zm2 1.5a.75.75 0 0 0 0-1.5v1.5zm-4.53-6.28a.75.75 0 1 0 1.06 1.06l-1.06-1.06zm3.06-.94a.75.75 0 1 0-1.06-1.06l1.06 1.06zM12.75 3a.75.75 0 0 0-1.5 0h1.5zm-1.5 2a.75.75 0 0 0 1.5 0h-1.5zm3 7A2.25 2.25 0 0 1 12 14.25v1.5A3.75 3.75 0 0 0 15.75 12h-1.5zM12 14.25A2.25 2.25 0 0 1 9.75 12h-1.5A3.75 3.75 0 0 0 12 15.75v-1.5zM9.75 12A2.25 2.25 0 0 1 12 9.75v-1.5A3.75 3.75 0 0 0 8.25 12h1.5zM12 9.75A2.25 2.25 0 0 1 14.25 12h1.5A3.75 3.75 0 0 0 12 8.25v1.5zm-9 3h2v-1.5H3v1.5zm2.53 6.78 2-2-1.06-1.06-2 2 1.06 1.06zm5.72-.53v2h1.5v-2h-1.5zm5.22-1.47 2 2 1.06-1.06-2-2-1.06 1.06zm-12-12 2 2 1.06-1.06-2-2-1.06 1.06zM19 12.75h2v-1.5h-2v1.5zm-1.47-5.22 2-2-1.06-1.06-2 2 1.06 1.06zM11.25 3v2h1.5V3h-1.5z" fill="#000"/></svg>