<svg width="9" height="9" fill="none" xmlns="http://www.w3.org/2000/svg"><g clip-path="url(#a)"><path d="M5.36 5.75a.26.26 0 0 0 0 .52v-.52zm0-2.768a.26.26 0 0 0 0 .52v-.52zM2.94 4.366a.26.26 0 1 0 0 .52v-.52zm2.767.52a.26.26 0 0 0 0-.52v.52zM3.285 3.5a.26.26 0 1 0 0-.519v.52zm0 2.768a.26.26 0 1 0 0-.519v.52zm2.767-2.768c.621 0 1.125.504 1.125 1.125h.519c0-.908-.736-1.644-1.644-1.644v.52zm1.125 1.125c0 .62-.504 1.124-1.125 1.124v.52c.908 0 1.644-.737 1.644-1.644h-.52zM6.052 5.75H5.36v.52h.692v-.52zm0-2.768H5.36v.52h.692v-.52zM2.94 4.885h2.767v-.519H2.94v.52zm-.346.865a1.124 1.124 0 0 1-1.125-1.124H.95c0 .907.736 1.643 1.644 1.643V5.75zM1.468 4.626c0-.621.504-1.125 1.125-1.125v-.519c-.908 0-1.644.736-1.644 1.644h.52zM2.593 3.5h.692v-.519h-.692v.52zm0 2.768h.692V5.75h-.692v.52z" fill="#656D72"/></g><defs><clipPath id="a"><path fill="#fff" transform="translate(.17 .474)" d="M0 0h8.303v8.303H0z"/></clipPath></defs></svg>