<svg width="10" height="9" fill="none" xmlns="http://www.w3.org/2000/svg"><g clip-path="url(#a)"><path d="M7.027 3.558c-.31 0-.615.077-.888.223a.346.346 0 0 0-.323-.223H4.432a.346.346 0 0 0-.346.346v4.152a.346.346 0 0 0 .346.346h1.384a.346.346 0 0 0 .346-.346V6.153a.346.346 0 0 1 .692 0v1.903a.346.346 0 0 0 .346.346h1.383a.346.346 0 0 0 .346-.346V5.46a1.905 1.905 0 0 0-1.902-1.903zm1.21 4.152h-.691V6.153a1.038 1.038 0 1 0-2.076 0V7.71h-.692V4.25h.692v.243a.346.346 0 0 0 .616.217 1.205 1.205 0 0 1 2.151.751V7.71zM3.394 3.558H2.01a.346.346 0 0 0-.346.346v4.152a.346.346 0 0 0 .346.346h1.384a.346.346 0 0 0 .346-.346V3.904a.346.346 0 0 0-.346-.346zM3.048 7.71h-.692V4.25h.692v3.46zM2.707.978a1.118 1.118 0 1 0-.02 2.234h.01a1.119 1.119 0 1 0 .01-2.234zm-.01 1.542h-.01a.423.423 0 0 1-.473-.425c0-.258.193-.425.493-.425a.427.427 0 0 1 .483.425c0 .258-.193.425-.493.425z" fill="#656D72"/></g><defs><clipPath id="a"><path fill="#fff" transform="translate(.972 .446)" d="M0 0h8.303v8.303H0z"/></clipPath></defs></svg>