<svg width="56" height="56" fill="none" xmlns="http://www.w3.org/2000/svg"><rect width="56" height="56" rx="16" fill="#F5F3FE"/><path d="m37 32.477-.75-.019v.019H37zm0 2.71h-.75v.003l.75-.004zM20.807 19v-.75.75zm2.715 0v.75h.008l-.008-.75zm1.198.437-.488.569.488-.57zm-.31 6.708-.53-.531a.75.75 0 0 0-.122.902l.651-.371zm5.43 5.42-.37.652a.75.75 0 0 0 .9-.122l-.53-.53zm6.73-.301.572-.485-.572.485zm-10.528-7.16.733.157-.733-.157zm5.842 5.831.156.734-.156-.734zm3.141 7.058.068-.747a.733.733 0 0 0-.068-.003v.75zM19.008 20.969h.75a.774.774 0 0 0-.003-.067l-.747.067zm11.637.795a.75.75 0 1 0-.288 1.472l.288-1.472zm2.12 3.88a.75.75 0 1 0 1.472-.288l-1.472.288zm-1.681-7.39a.75.75 0 1 0-.166 1.491l.166-1.49zM35 21l.53-.53L35 21zm1.255 4.084a.75.75 0 1 0 1.49-.168l-1.49.168zm-.006 7.393v2.71h1.5v-2.71h-1.5zM20.81 19.75h2.714v-1.5h-2.715v1.5zm2.722 0c.257-.003.507.089.702.256l.977-1.138a2.562 2.562 0 0 0-1.694-.618l.015 1.5zm.228 6.766a15.217 15.217 0 0 0 5.711 5.7l.74-1.304a13.717 13.717 0 0 1-5.148-5.138l-1.303.742zm12.24 5.233c.168.198.257.45.25.709l1.5.037a2.555 2.555 0 0 0-.606-1.716l-1.144.97zM24.233 20.006c.122.105.284.323.45.672.162.338.305.746.416 1.175.233.894.29 1.72.21 2.095l1.467.313c.155-.722.025-1.823-.225-2.786a8.156 8.156 0 0 0-.514-1.444c-.206-.43-.476-.862-.827-1.163l-.977 1.138zm7.808 10.663c.377-.08 1.209-.022 2.108.211a6.67 6.67 0 0 1 1.179.418c.35.168.567.33.671.451l1.144-.97c-.301-.355-.735-.627-1.167-.834a8.151 8.151 0 0 0-1.45-.517c-.967-.251-2.074-.38-2.797-.227l.312 1.468zm-1.67 1.426c.161-.161.324-.341.469-.5.151-.165.292-.315.435-.45.294-.277.536-.427.766-.476L31.73 29.2c-.628.134-1.114.505-1.482.852-.187.176-.36.362-.513.528-.16.174-.292.321-.423.453l1.06 1.061zm-5.062-8.147c-.048.228-.2.47-.476.763a8.662 8.662 0 0 1-.452.435c-.158.144-.339.307-.5.468l1.06 1.062c.13-.132.278-.264.452-.423.167-.152.354-.325.53-.512.347-.367.72-.852.853-1.48l-1.467-.313zm9.717 12.295c-8.61.007-15.276-6.72-15.269-15.273l-1.5-.001c-.007 9.378 7.327 16.781 16.77 16.774l-.001-1.5zm1.223-1.053c.003.595-.551 1.11-1.155 1.056l-.135 1.494c1.488.134 2.796-1.08 2.79-2.557l-1.5.007zM19.754 20.902c-.054-.597.456-1.151 1.055-1.152l-.002-1.5c-1.47.002-2.681 1.303-2.547 2.787l1.494-.135zm10.602 2.334c.632.123 1.214.395 1.614.794l1.06-1.06c-.662-.663-1.543-1.042-2.386-1.206l-.288 1.472zm1.614.794c.4.4.67.982.794 1.614l1.472-.288c-.164-.843-.543-1.724-1.206-2.386l-1.06 1.06zm-1.053-4.285c1.339.15 2.565.799 3.553 1.786l1.06-1.062c-1.192-1.19-2.723-2.023-4.447-2.214l-.166 1.49zm3.553 1.786c.987.985 1.634 2.213 1.785 3.553l1.49-.168c-.193-1.722-1.021-3.254-2.215-4.447l-1.06 1.062z" fill="#7E74F1"/></svg>